<?xml version="1.0" encoding="UTF-8" standalone="no"?>
<!-- Created with Inkscape (http://www.inkscape.org/) -->

<svg
   xmlns:dc="http://purl.org/dc/elements/1.1/"
   xmlns:cc="http://creativecommons.org/ns#"
   xmlns:rdf="http://www.w3.org/1999/02/22-rdf-syntax-ns#"
   xmlns:svg="http://www.w3.org/2000/svg"
   xmlns="http://www.w3.org/2000/svg"
   xmlns:sodipodi="http://sodipodi.sourceforge.net/DTD/sodipodi-0.dtd"
   xmlns:inkscape="http://www.inkscape.org/namespaces/inkscape"
   width="35.524906mm"
   height="96.132088mm"
   viewBox="0 0 125.87565 340.62551"
   id="svg10089"
   version="1.1"
   inkscape:version="0.91 r13725"
   sodipodi:docname="flecha_form.svg">
  <defs
     id="defs10091" />
  <sodipodi:namedview
     id="base"
     pagecolor="#ffffff"
     bordercolor="#666666"
     borderopacity="1.0"
     inkscape:pageopacity="0.0"
     inkscape:pageshadow="2"
     inkscape:zoom="0.35"
     inkscape:cx="-402.06217"
     inkscape:cy="207.45561"
     inkscape:document-units="px"
     inkscape:current-layer="layer1"
     showgrid="false"
     fit-margin-top="0"
     fit-margin-left="0"
     fit-margin-right="0"
     fit-margin-bottom="0"
     inkscape:window-width="1366"
     inkscape:window-height="718"
     inkscape:window-x="0"
     inkscape:window-y="25"
     inkscape:window-maximized="1" />
  <metadata
     id="metadata10094">
    <rdf:RDF>
      <cc:Work
         rdf:about="">
        <dc:format>image/svg+xml</dc:format>
        <dc:type
           rdf:resource="http://purl.org/dc/dcmitype/StillImage" />
        <dc:title></dc:title>
      </cc:Work>
    </rdf:RDF>
  </metadata>
  <g
     inkscape:label="Capa 1"
     inkscape:groupmode="layer"
     id="layer1"
     transform="translate(-777.06217,-399.19231)">
    <path
       inkscape:connector-curvature="0"
       id="path7786"
       style="fill:#fefeff;fill-opacity:1;fill-rule:nonzero;stroke:none"
       d="m 781.47992,735.61981 c 0,0 2.06375,-0.55125 5.93375,-1.58625 3.855,-1.07875 9.48125,-2.795 16.4725,-5.46125 6.9875,-2.6575 15.295,-6.42 24.2975,-11.685 4.4525,-2.7075 9.16125,-5.65625 13.82,-9.2 2.3825,-1.6975 4.675,-3.6375 7.06375,-5.56625 1.18125,-0.98125 2.32125,-2.04 3.5025,-3.07375 0.5875,-0.52125 1.17625,-1.04625 1.77125,-1.57375 0.57,-0.55125 1.14375,-1.10625 1.72,-1.665 4.66375,-4.40875 9.17625,-9.37 13.46625,-14.79875 4.29,-5.425 8.37,-11.32375 12.05875,-17.68875 7.34875,-12.73875 13.19875,-27.27375 16.84,-42.8925 3.6625,-15.61125 5.13125,-32.27 4.27375,-49.0725 -0.84125,-16.805 -3.9975,-33.7475 -9.255,-50.0025 -5.2375,-16.265 -12.545,-31.83875 -21.38125,-46.13875 -8.805,-14.33375 -19.28625,-27.26625 -30.46375,-38.715 -5.6425,-5.68 -11.475,-10.97375 -17.39375,-15.90375 -5.9475,-4.8975 -12.0225,-9.36875 -18.0675,-13.52125 -0.45,-0.295 -0.87375,-0.57625 -1.265,-0.83375 -1.28375,-0.83625 -2.13875,-1.3925 -2.13875,-1.3925 l 4.66,-3.07 c -2.64,-0.49125 -5.22875,-1.01125 -7.8425,-1.43125 l -7.8025,-1.155 4.5725,6.33875 c 1.48625,2.115 2.89375,4.29625 4.3075,6.41625 l 1.0225,-5.43875 c 0,0 0.8475,0.55125 2.12,1.38 0.38875,0.2575 0.80875,0.535 1.255,0.82875 5.9975,4.1175 12.01875,8.55125 17.91625,13.4075 5.86875,4.8875 11.65125,10.13625 17.24375,15.76625 11.07875,11.34875 21.4675,24.165 30.19125,38.3675 8.75375,14.16875 15.9925,29.59625 21.18,45.70125 5.2075,16.0975 8.33,32.87 9.1625,49.4975 0.8475,16.625 -0.60625,33.095 -4.225,48.51875 -3.59875,15.4325 -9.375,29.78125 -16.62625,42.35125 -3.63875,6.28125 -7.66375,12.1 -11.8975,17.4525 -4.23,5.355 -8.68,10.24875 -13.28375,14.59875 -0.5675,0.54875 -1.13375,1.0975 -1.69625,1.6425 -0.585,0.52 -1.1675,1.0375 -1.74625,1.5525 -1.16625,1.01875 -2.29125,2.06375 -3.455,3.03125 -2.35875,1.90375 -4.61875,3.8175 -6.97125,5.4925 -4.59625,3.49875 -9.2475,6.4075 -13.64125,9.08125 -8.89,5.19875 -17.0975,8.91875 -24.0075,11.54625 -6.91125,2.63375 -12.4775,4.33375 -16.29375,5.40125 -3.82875,1.0225 -5.87125,1.56875 -5.87125,1.56875 l 0.47375,1.925 z" />
    <path
       inkscape:connector-curvature="0"
       id="path7802"
       style="fill:#fefeff;fill-opacity:1;fill-rule:nonzero;stroke:none"
       d="m 787.68717,734.50531 c 0,2.935 -2.3775,5.3125 -5.3125,5.3125 -2.935,0 -5.3125,-2.3775 -5.3125,-5.3125 0,-2.935 2.3775,-5.3125 5.3125,-5.3125 2.935,0 5.3125,2.3775 5.3125,5.3125" />
  </g>
</svg>
