<?xml version="1.0" encoding="UTF-8" standalone="no"?>
<!-- Created with Inkscape (http://www.inkscape.org/) -->

<svg
   xmlns:dc="http://purl.org/dc/elements/1.1/"
   xmlns:cc="http://creativecommons.org/ns#"
   xmlns:rdf="http://www.w3.org/1999/02/22-rdf-syntax-ns#"
   xmlns:svg="http://www.w3.org/2000/svg"
   xmlns="http://www.w3.org/2000/svg"
   xmlns:sodipodi="http://sodipodi.sourceforge.net/DTD/sodipodi-0.dtd"
   xmlns:inkscape="http://www.inkscape.org/namespaces/inkscape"
   width="64.778252mm"
   height="21.16922mm"
   viewBox="0 0 229.52924 75.009047"
   id="svg10488"
   version="1.1"
   inkscape:version="0.91 r13725"
   sodipodi:docname="logo.svg">
  <defs
     id="defs10490">
    <clipPath
       id="clipPath3566"
       clipPathUnits="userSpaceOnUse">
      <path
         inkscape:connector-curvature="0"
         id="path3568"
         d="m 0,4749 1282,0 L 1282,0 0,0 0,4749 Z" />
    </clipPath>
  </defs>
  <sodipodi:namedview
     id="base"
     pagecolor="#ffffff"
     bordercolor="#666666"
     borderopacity="1.0"
     inkscape:pageopacity="0.0"
     inkscape:pageshadow="2"
     inkscape:zoom="1.4"
     inkscape:cx="264.41219"
     inkscape:cy="47.960495"
     inkscape:document-units="px"
     inkscape:current-layer="g3562"
     showgrid="false"
     fit-margin-top="0"
     fit-margin-left="0"
     fit-margin-right="0"
     fit-margin-bottom="0"
     inkscape:window-width="1366"
     inkscape:window-height="718"
     inkscape:window-x="0"
     inkscape:window-y="25"
     inkscape:window-maximized="1" />
  <metadata
     id="metadata10493">
    <rdf:RDF>
      <cc:Work
         rdf:about="">
        <dc:format>image/svg+xml</dc:format>
        <dc:type
           rdf:resource="http://purl.org/dc/dcmitype/StillImage" />
        <dc:title></dc:title>
      </cc:Work>
    </rdf:RDF>
  </metadata>
  <g
     inkscape:label="Capa 1"
     inkscape:groupmode="layer"
     id="layer1"
     transform="translate(486.19319,-37.71482)">
    <g
       transform="matrix(1.25,0,0,-1.25,-455.09882,48.81087)"
       id="g3554">
      <path
         inkscape:connector-curvature="0"
         id="path3556"
         style="fill:#fefeff;fill-opacity:1;fill-rule:nonzero;stroke:none"
         d="m 0,0 -3.017,-9.045 0,3.297 -8,-2.312 0,15.287 -12.729,-2.948 3.05,-24.508 16.255,1.584 -1.147,-4.487 10.819,-2.973 0.862,7.885 2.705,0.705 2.075,-5.342 11.058,2.492 L 10.189,1.253 0,0 Z" />
    </g>
    <g
       transform="matrix(1.25,0,0,-1.25,-482.57194,44.74357)"
       id="g3558">
      <path
         inkscape:connector-curvature="0"
         id="path3560"
         style="fill:#fefeff;fill-opacity:1;fill-rule:nonzero;stroke:none"
         d="m 0,0 2.6,-22.045 15.825,1.551 0,9.747 -8.145,-2.311 0,15.381 L 0,0 Z m 18.039,-25.461 8.046,-2.215 0.782,7.249 4.719,1.23 2.086,-5.378 8.261,1.862 -10.305,19.291 -8.234,-1.032 -4.646,-16.008 0.628,0.061 -1.337,-5.06 z m 10.336,-5.581 -13.554,3.731 1.036,3.915 -15.573,-1.526 -3.181,26.971 15.815,3.574 -10e-4,-15.191 6.807,1.931 1.621,5.583 11.755,1.474 12.79,-23.945 -13.855,-3.122 -2.058,5.305 -0.683,-0.178 -0.919,-8.522 z" />
    </g>
    <g
       transform="matrix(1.25,0,0,-1.25,-520.74457,5917.9106)"
       id="g3562">
      <g
         clip-path="url(#clipPath3566)"
         id="g3564">
        <g
           transform="translate(169.5,4680.2134)"
           id="g3570">
          <path
             inkscape:connector-curvature="0"
             id="path3572"
             style="fill:#fefeff;fill-opacity:1;fill-rule:nonzero;stroke:none"
             d="M 0,0 0,4.443 1.742,5.171 0,0 Z m -20.828,-0.977 c -0.462,-0.546 -1.148,-0.86 -1.88,-0.86 -1.333,0 -2.417,1.037 -2.417,2.312 0,1.275 1.084,2.312 2.417,2.312 1.116,0 2.079,-0.727 2.344,-1.766 l 1.095,0.216 0.034,-0.328 -1.593,-1.886 z m 49.736,13.82 -8.261,-1.642 0.784,3.586 -25.431,0 0,-10.696 -1.254,-1.033 -0.111,5.182 0.807,-0.154 1.903,11.275 -18.026,-4.524 0.411,-3.903 c -1.158,0.356 -2.353,0.539 -3.576,0.539 -4.628,0 -8.644,-2.578 -10.637,-6.341 l -4.393,14.373 -8.527,0.545 -7.044,-14.591 -3.458,12.222 -8.885,1.338 -2.041,-6.675 -4.14,5.691 -8.969,-2.064 -3.399,-24.982 11.339,1.181 0,7.176 2.749,-2.894 6.387,0.623 1.023,2.594 2.053,-7.405 10.128,3.24 -1.38,4.931 5.669,-2.795 1.945,6.343 1.847,0.121 0.839,-4.611 6.925,0.219 c 0.031,-6.425 5.391,-11.644 11.975,-11.644 0.93,0 1.862,0.107 2.774,0.319 l 0.951,0.22 1.449,6.713 0.32,-3.135 17.152,1.853 -1.054,-3.251 16.561,0 -1.031,12.5 4.126,-1.582 -2.823,-11.491 10.123,-2.56 0.633,7.224 2.205,0.625 1.965,-4.787 10.264,2.526 -10.867,19.601 z" />
        </g>
        <g
           transform="translate(146.7915,4681.6816)"
           id="g3574">
          <path
             inkscape:connector-curvature="0"
             id="path3576"
             style="fill:#fefeff;fill-opacity:1;fill-rule:nonzero;stroke:none"
             d="m 0,0 c -0.605,0 -1.097,-0.446 -1.097,-0.994 0,-0.548 0.492,-0.993 1.097,-0.993 0.344,0 0.663,0.143 0.873,0.393 l 0.309,0.365 -0.116,0.458 C 0.951,-0.317 0.512,0 0,0 m 37.473,-0.244 0.293,-3.599 0.788,3.198 -1.081,0.401 z m -95.512,13.667 -2.828,-22.422 8.751,0.892 0,9.526 4.369,-5.056 4.766,0.474 2.1,5.674 2.741,-10.039 7.59,2.432 -1.846,6.555 0.004,-0.001 -3.843,13.578 -6.918,1.041 -2.48,-8.114 -5.183,7.123 -7.223,-1.663 z m 96.926,-23.746 7.35,-1.848 0.578,6.593 4.211,1.201 1.982,-4.825 7.486,1.844 -9.577,17.273 -9.246,-1.617 0.85,4.1 -22.022,0 -0.093,-0.555 0,-9.899 -3.982,-2.849 -0.372,9.302 1.07,-0.216 0.647,3.88 0,2.975 0.495,0 0.181,1.089 L 3.469,12.368 3.961,7.62 2.057,8.206 c -1.038,0.318 -2.111,0.48 -3.192,0.48 -3.999,0 -7.63,-2.161 -9.474,-5.64 l -1.495,-2.817 -5.058,16.55 -6.73,0.43 -7.779,-16.108 6.205,-3.061 1.758,5.732 3.925,0.256 0.846,-4.649 7.142,0.226 0.006,-1.355 c 0.028,-5.697 4.81,-10.332 10.657,-10.332 0.828,0 1.662,0.096 2.477,0.285 l 0.136,0.031 1.974,9.142 -0.568,-0.672 C 2.174,-4.14 1.122,-4.624 0,-4.624 c -2.059,0 -3.735,1.628 -3.735,3.63 0,2.002 1.676,3.631 3.735,3.631 1.268,0 2.413,-0.617 3.09,-1.594 l 1.21,0.239 0.212,0.979 0.093,-0.919 0,10e-4 0.936,-9.181 16.183,1.647 0,10.044 5.241,2.191 -4.083,-12.117 0.49,0.05 -1.115,-3.555 13.333,0 -1.084,13.244 7.172,-2.655 -2.791,-11.334 z m 9.707,-5.161 -12.895,3.244 0.007,0.025 -17.039,0 0.991,3.163 -15.228,-1.55 -0.726,-3.355 -1.764,-0.409 c -1.009,-0.234 -2.044,-0.353 -3.072,-0.353 -6.828,0 -12.49,5.094 -13.215,11.605 l -6.777,-0.216 -0.746,4.101 -1.983,-6.468 -4.399,2.171 0.93,-3.305 -12.636,-4.049 -1.427,5.226 -7.462,-0.742 -0.633,0.731 0,-4.824 -14.419,-1.47 3.474,27.54 10.715,2.466 3.099,-4.259 1.601,5.235 10.85,-1.633 2.744,-9.698 5.921,12.263 10.322,-0.661 3.859,-12.623 c 2.496,2.921 6.191,4.652 10.179,4.652 0.696,0 1.391,-0.053 2.078,-0.161 l -0.332,3.209 21.097,5.29 -0.771,-4.625 24.822,0 -0.718,-3.471 7.273,1.27 12.159,-21.93 -13.042,-3.211 -1.949,4.746 -0.197,-0.056 -0.691,-7.868 z" />
        </g>
        <g
           transform="translate(30.833,4698.3384)"
           id="g3578">
          <path
             inkscape:connector-curvature="0"
             id="path3580"
             style="fill:#ff6b06;fill-opacity:1;fill-rule:nonzero;stroke:none"
             d="m 0,0 2.185,-21.633 15.482,1.552 0,9.23 L 9.658,-13.159 9.719,2.225 0,0 Z" />
        </g>
        <g
           transform="translate(33.2158,4676.4653)"
           id="g3582">
          <path
             inkscape:connector-curvature="0"
             id="path3584"
             style="fill:#ff6b06;fill-opacity:1;fill-rule:nonzero;stroke:none"
             d="m 0,0 -2.6,22.044 10.337,2.328 0.152,-15.369 8.395,2.308 0,-9.718 L 0,0 Z" />
        </g>
        <g
           transform="translate(88.96,4694.9043)"
           id="g3586">
          <path
             inkscape:connector-curvature="0"
             id="path3588"
             style="fill:#ff6b06;fill-opacity:1;fill-rule:nonzero;stroke:none"
             d="m 0,0 -2.778,-22.004 8.318,0.852 0,10.218 4.703,-5.713 4.438,0.439 2.275,6.374 2.895,-10.659 7.162,2.294 L 21.418,1.593 14.83,2.585 12.278,-5.769 6.922,1.593 0,0 Z" />
        </g>
        <g
           transform="translate(56.6548,4682.9824)"
           id="g3590">
          <path
             inkscape:connector-curvature="0"
             id="path3592"
             style="fill:#ff6b06;fill-opacity:1;fill-rule:nonzero;stroke:none"
             d="M 0,0 1.1,5.651 3.187,1.208 0,0 Z m 5.495,11.867 -7.801,-0.989 -5.495,-20.658 7.582,-2.088 0.769,7.143 5.055,1.318 2.087,-5.384 7.802,1.758 -9.999,18.9 z" />
        </g>
        <g
           transform="translate(123.2075,4689.5269)"
           id="g3594">
          <path
             inkscape:connector-curvature="0"
             id="path3596"
             style="fill:#ff6b06;fill-opacity:1;fill-rule:nonzero;stroke:none"
             d="M 0,0 1.759,4.379 2.751,0.48 0,0 Z m 6.257,8.701 -6.431,0.411 -7.618,-15.776 5.779,-2.853 1.724,5.629 4.272,0.279 0.847,-4.656 6.551,0.208 -5.124,16.758 z" />
        </g>
        <g
           transform="translate(192.8213,4680.5298)"
           id="g3598">
          <path
             inkscape:connector-curvature="0"
             id="path3600"
             style="fill:#ff6b06;fill-opacity:1;fill-rule:nonzero;stroke:none"
             d="M 0,0 0.894,5.129 2.86,1.149 0,0 Z m 4.757,10.827 -7.036,-1.033 -4.6,-18.774 6.89,-1.754 0.57,6.472 4.546,1.282 1.983,-4.832 7.023,1.729 -9.376,16.91 z" />
        </g>
        <g
           transform="translate(149.8472,4678.2197)"
           id="g3602">
          <path
             inkscape:connector-curvature="0"
             id="path3604"
             style="fill:#ff6b06;fill-opacity:1;fill-rule:nonzero;stroke:none"
             d="m 0,0 0,0 c -0.725,-0.858 -1.825,-1.406 -3.056,-1.406 -2.184,0 -3.955,1.724 -3.955,3.85 0,2.127 1.771,3.851 3.955,3.851 1.856,0 3.41,-1.247 3.835,-2.926 l -1.113,7.818 c -1.193,0.461 -2.492,0.718 -3.853,0.718 -5.765,0 -10.438,-4.551 -10.438,-10.165 0,-5.613 4.673,-10.164 10.438,-10.164 0.836,0 1.647,0.099 2.427,0.279 L 0,0 Z" />
        </g>
        <g
           transform="translate(145.6597,4669.5767)"
           id="g3606">
          <path
             inkscape:connector-curvature="0"
             id="path3608"
             style="fill:#ff6b06;fill-opacity:1;fill-rule:nonzero;stroke:none"
             d="m 0,0 c -5.876,0 -10.658,4.658 -10.658,10.383 0,5.726 4.782,10.385 10.658,10.385 1.353,0 2.675,-0.247 3.933,-0.733 l 0.119,-0.047 1.132,-7.946 -0.43,-0.084 c -0.412,1.625 -1.902,2.761 -3.622,2.761 -2.059,0 -3.735,-1.629 -3.735,-3.632 0,-2.001 1.676,-3.629 3.735,-3.629 1.121,0 2.174,0.483 2.887,1.327 L 4.588,9.458 2.613,0.316 2.477,0.285 C 1.662,0.095 0.83,0 0,0" />
        </g>
        <g
           transform="translate(150.5166,4693.8604)"
           id="g3610">
          <path
             inkscape:connector-curvature="0"
             id="path3612"
             style="fill:#ff6b06;fill-opacity:1;fill-rule:nonzero;stroke:none"
             d="m 0,0 0.046,-0.435 1.848,-19.344 16.089,1.868 0,8.021 -7.133,-4.505 -1.206,3.517 2.913,0.44 -0.301,5.164 -3.83,-1.209 -1.203,4.066 6.048,-1.319 1.21,7.365 L 0,0 Z" />
        </g>
        <g
           transform="translate(167.5,4694)"
           id="g3614">
          <path
             inkscape:connector-curvature="0"
             id="path3616"
             style="fill:#ff6b06;fill-opacity:1;fill-rule:nonzero;stroke:none"
             d="M 0,0 0,-8.71 6.88,-5.791 1.895,-21 14.641,-21 13.542,-7.933 19.476,-10.504 21.562,0 0,0 Z" />
        </g>
        <g
           transform="translate(182.3794,4673)"
           id="g3618">
          <path
             inkscape:connector-curvature="0"
             id="path3620"
             style="fill:#ff6b06;fill-opacity:1;fill-rule:nonzero;stroke:none"
             d="m 0,0 -13.291,0 5.04,14.93 -6.628,-2.971 0,9.041 21.83,0 -2.19,-10.976 -5.85,2.688 L 0,0 Z" />
        </g>
      </g>
    </g>
    <text
       y="112.47607"
       x="-478.68094"
       id="text3622"
       style="font-variant:normal;font-weight:100;font-stretch:normal;font-size:17.5px;font-family:'Raleway Thin';-inkscape-font-specification:Raleway-Thin;writing-mode:lr-tb;fill:#fefeff;fill-opacity:1;fill-rule:nonzero;stroke:none">
      <tspan
         id="tspan3624"
         sodipodi:role="line"
         y="112.47607"
         x="-478.68094 -462.98346 -446.69095 -439.37595 -425.74344 -409.80093 -395.06595 -380.76843 -363.68845 -355.62271 -341.01019 -333.43271 -319.43271 -305.13519 -290.83771 -273.75769">CHILDREN &amp; TEENS</tspan>
    </text>
  </g>
</svg>
