<?xml version="1.0" encoding="UTF-8" standalone="no"?>
<!-- Created with Inkscape (http://www.inkscape.org/) -->

<svg
   xmlns:dc="http://purl.org/dc/elements/1.1/"
   xmlns:cc="http://creativecommons.org/ns#"
   xmlns:rdf="http://www.w3.org/1999/02/22-rdf-syntax-ns#"
   xmlns:svg="http://www.w3.org/2000/svg"
   xmlns="http://www.w3.org/2000/svg"
   xmlns:sodipodi="http://sodipodi.sourceforge.net/DTD/sodipodi-0.dtd"
   xmlns:inkscape="http://www.inkscape.org/namespaces/inkscape"
   width="140.17061mm"
   height="39.160679mm"
   viewBox="0 0 496.66751 138.75831"
   id="svg10641"
   version="1.1"
   inkscape:version="0.91 r13725"
   sodipodi:docname="logo-pie.svg">
  <defs
     id="defs10643">
    <clipPath
       id="clipPath3428"
       clipPathUnits="userSpaceOnUse">
      <path
         inkscape:connector-curvature="0"
         id="path3430"
         d="m 0,4749 1282,0 L 1282,0 0,0 0,4749 Z" />
    </clipPath>
    <clipPath
       id="clipPath3436"
       clipPathUnits="userSpaceOnUse">
      <path
         inkscape:connector-curvature="0"
         id="path3438"
         d="m 411.789,231.82 397.334,0 0,-82.136 -397.334,0 0,82.136 z" />
    </clipPath>
  </defs>
  <sodipodi:namedview
     id="base"
     pagecolor="#ffffff"
     bordercolor="#666666"
     borderopacity="1.0"
     inkscape:pageopacity="0.0"
     inkscape:pageshadow="2"
     inkscape:zoom="0.35"
     inkscape:cx="389.04804"
     inkscape:cy="492.23631"
     inkscape:document-units="px"
     inkscape:current-layer="layer1"
     showgrid="false"
     fit-margin-top="0"
     fit-margin-left="0"
     fit-margin-right="0"
     fit-margin-bottom="0"
     inkscape:window-width="1366"
     inkscape:window-height="718"
     inkscape:window-x="0"
     inkscape:window-y="25"
     inkscape:window-maximized="1" />
  <metadata
     id="metadata10646">
    <rdf:RDF>
      <cc:Work
         rdf:about="">
        <dc:format>image/svg+xml</dc:format>
        <dc:type
           rdf:resource="http://purl.org/dc/dcmitype/StillImage" />
        <dc:title></dc:title>
      </cc:Work>
    </rdf:RDF>
  </metadata>
  <g
     inkscape:label="Capa 1"
     inkscape:groupmode="layer"
     id="layer1"
     transform="translate(14.04804,-885.8402)">
    <g
       transform="matrix(1.25,0,0,-1.25,-528.78429,1175.6152)"
       id="g3424">
      <g
         clip-path="url(#clipPath3428)"
         id="g3426">
        <g
           id="g3432">
          <g
             id="g3434" />
          <g
             id="g3440">
            <g
               style="opacity:0.89999402"
               id="g3442"
               clip-path="url(#clipPath3436)">
              <g
                 id="g3444"
                 transform="translate(465.3223,212.6123)">
                <path
                   inkscape:connector-curvature="0"
                   id="path3446"
                   style="fill:#fefeff;fill-opacity:1;fill-rule:nonzero;stroke:none"
                   d="m 0,0 -6.822,-19.57 0,7.132 -17,-5 0,33.078 -27.406,-6.379 6.669,-53.032 35.209,3.426 -2.465,-9.707 23.42,-6.435 1.87,17.064 5.855,1.524 4.489,-11.557 23.931,5.387 L 22.195,2.714 0,0 Z" />
              </g>
              <g
                 id="g3448"
                 transform="translate(418.0586,219.6523)">
                <path
                   inkscape:connector-curvature="0"
                   id="path3450"
                   style="fill:#fefeff;fill-opacity:1;fill-rule:nonzero;stroke:none"
                   d="m 0,0 5.626,-47.7 34.243,3.356 0,21.092 -17.624,-5 0,33.282 L 0,0 Z m 39.032,-55.093 17.411,-4.792 1.694,15.686 10.211,2.663 4.513,-11.638 17.875,4.028 -22.298,41.744 -17.817,-2.233 -10.054,-34.64 1.361,0.132 -2.896,-10.95 z m 22.366,-12.075 -29.327,8.072 2.241,8.475 -33.697,-3.307 -6.885,58.365 34.222,7.731 -0.002,-32.871 14.73,4.18 3.507,12.082 25.436,3.189 27.675,-51.814 -29.98,-6.756 -4.453,11.48 -1.476,-0.386 -1.991,-18.44 z" />
              </g>
              <g
                 id="g3452"
                 transform="translate(718.5,180.0117)">
                <path
                   inkscape:connector-curvature="0"
                   id="path3454"
                   style="fill:#fefeff;fill-opacity:1;fill-rule:nonzero;stroke:none"
                   d="M 0,0 0,9.614 3.771,11.19 0,0 Z m -44.817,-2.114 c -0.999,-1.184 -2.484,-1.861 -4.069,-1.861 -2.884,0 -5.229,2.245 -5.229,5.003 0,2.759 2.345,5.002 5.229,5.002 2.415,0 4.5,-1.572 5.073,-3.821 l 2.37,0.467 0.073,-0.709 -3.447,-4.081 z m 107.622,29.906 -17.876,-3.558 1.696,7.754 -55.625,0 0,-23.134 -2.415,-2.237 -0.091,11.213 1.82,-0.331 4.156,24.396 -38.987,-9.79 0.9,-8.447 c -2.508,0.772 -5.087,1.168 -7.736,1.168 -10.013,0 -18.702,-5.58 -23.014,-13.721 l -9.506,31.103 -18.449,1.178 -15.242,-31.573 -7.483,26.447 -19.224,2.896 -4.416,-14.447 -8.959,12.316 -19.409,-4.467 -7.918,-54.055 23.973,2.553 0,15.526 6.511,-6.26 14.102,1.351 2.355,5.612 4.512,-16.024 21.954,7.01 -2.971,10.67 12.276,-6.046 4.213,13.727 3.999,0.259 1.818,-9.979 14.983,0.477 c 0.068,-13.905 11.667,-25.197 25.912,-25.197 2.014,0 4.032,0.231 6.004,0.689 l 2.059,0.477 3.134,14.525 0.694,-6.781 37.113,3.97 -2.279,-7.074 35.834,0 -2.232,27.086 8.929,-3.404 -6.108,-24.854 21.905,-5.536 1.37,15.636 4.771,1.354 4.25,-10.36 22.211,5.467 -23.514,42.415 z" />
              </g>
              <g
                 id="g3456"
                 transform="translate(669.6143,183.1895)">
                <path
                   inkscape:connector-curvature="0"
                   id="path3458"
                   style="fill:#fefeff;fill-opacity:1;fill-rule:nonzero;stroke:none"
                   d="m 0,0 c -1.312,0 -2.374,-0.966 -2.374,-2.149 0,-1.186 1.062,-2.148 2.374,-2.148 0.743,0 1.434,0.307 1.888,0.849 L 2.556,-2.66 2.308,-1.67 C 2.057,-0.687 1.108,0 0,0 m 81.085,-0.529 0.635,-7.789 1.705,6.923 -2.34,0.866 z m -206.672,29.577 -6.121,-48.522 18.936,1.931 0,20.613 9.455,-10.939 10.31,1.026 4.547,12.278 5.931,-21.726 16.423,5.264 -3.995,14.184 0.01,-0.003 -8.316,29.379 -14.97,2.254 -5.367,-17.557 -11.216,15.415 -15.627,-3.597 z m 209.733,-51.386 15.904,-4 1.251,14.267 9.112,2.6 4.289,-10.439 16.197,3.988 -20.721,37.377 -20.007,-3.496 1.837,8.869 -47.653,0 -0.2,-1.203 0,-21.419 -8.615,-6.165 -0.806,20.13 2.314,-0.468 1.402,8.395 0,6.435 1.071,0 0.392,2.358 -32.408,-8.127 1.066,-10.276 -4.12,1.266 c -2.247,0.69 -4.569,1.04 -6.907,1.04 -8.654,0 -16.51,-4.675 -20.501,-12.2 l -3.233,-6.1 -10.946,35.815 -14.562,0.929 -16.834,-34.854 13.428,-6.627 3.801,12.403 8.495,0.556 1.83,-10.062 15.454,0.492 0.015,-2.933 c 0.061,-12.327 10.408,-22.356 23.059,-22.356 1.793,0 3.597,0.207 5.359,0.616 l 0.295,0.068 4.272,19.782 -1.229,-1.458 C 4.705,-8.96 2.427,-10.006 0,-10.006 c -4.456,0 -8.082,3.524 -8.082,7.857 0,4.329 3.626,7.854 8.082,7.854 2.743,0 5.22,-1.336 6.687,-3.449 l 2.617,0.516 0.459,2.12 0.201,-1.99 0,0.003 2.025,-19.864 35.018,3.563 0,21.732 11.342,4.741 -8.836,-26.22 1.06,0.109 -2.412,-7.693 28.851,0 -2.345,28.661 15.519,-5.745 -6.04,-24.527 z m 21.004,-11.168 -27.902,7.02 0.015,0.055 -36.871,0 2.144,6.843 -32.951,-3.353 -1.57,-7.26 -3.817,-0.885 c -2.183,-0.506 -4.423,-0.764 -6.648,-0.764 -14.776,0 -27.027,11.023 -28.595,25.11 l -14.665,-0.465 -1.614,8.872 -4.29,-13.995 -9.52,4.699 2.013,-7.153 -27.344,-8.763 -3.086,11.309 -16.146,-1.606 -1.37,1.586 0,-10.441 -31.203,-3.18 7.519,59.591 23.186,5.337 6.705,-9.215 3.464,11.328 23.479,-3.534 5.938,-20.985 12.811,26.534 22.337,-1.429 8.35,-27.312 c 5.4,6.316 13.395,10.064 22.025,10.064 1.506,0 3.01,-0.116 4.497,-0.35 l -0.72,6.946 45.653,11.445 -1.668,-10.01 53.709,0 -1.554,-7.51 15.738,2.75 26.31,-47.453 -28.219,-6.949 -4.218,10.27 -0.427,-0.121 -1.495,-17.026 z" />
              </g>
              <g
                 id="g3460"
                 transform="translate(418.6963,219.2324)">
                <path
                   inkscape:connector-curvature="0"
                   id="path3462"
                   style="fill:#ff6b06;fill-opacity:1;fill-rule:nonzero;stroke:none"
                   d="m 0,0 5.015,-46.812 33.789,3.36 0,19.973 L 21.187,-28.475 21.174,4.812 0,0 Z" />
              </g>
              <g
                 id="g3464"
                 transform="translate(423.5576,171.9023)">
                <path
                   inkscape:connector-curvature="0"
                   id="path3466"
                   style="fill:#ff6b06;fill-opacity:1;fill-rule:nonzero;stroke:none"
                   d="m 0,0 -5.478,47.702 22.441,5.036 0.07,-33.256 17.909,4.991 0,-21.026 L 0,0 Z" />
              </g>
              <g
                 id="g3468"
                 transform="translate(544.4746,211.8008)">
                <path
                   inkscape:connector-curvature="0"
                   id="path3470"
                   style="fill:#ff6b06;fill-opacity:1;fill-rule:nonzero;stroke:none"
                   d="m 0,0 -5.993,-47.613 18.018,1.842 0,22.113 10.159,-12.363 9.593,0.949 4.916,13.793 6.264,-23.065 15.497,4.964 L 46.347,3.449 32.089,5.596 26.567,-12.482 14.979,3.449 0,0 Z" />
              </g>
              <g
                 id="g3472"
                 transform="translate(474.5713,186.0049)">
                <path
                   inkscape:connector-curvature="0"
                   id="path3474"
                   style="fill:#ff6b06;fill-opacity:1;fill-rule:nonzero;stroke:none"
                   d="M 0,0 2.38,12.228 6.896,2.616 0,0 Z m 11.89,25.677 -16.88,-2.139 -11.891,-44.7 16.405,-4.519 1.665,15.456 10.939,2.853 4.518,-11.652 16.88,3.804 -21.636,40.897 z" />
              </g>
              <g
                 id="g3476"
                 transform="translate(618.582,200.166)">
                <path
                   inkscape:connector-curvature="0"
                   id="path3478"
                   style="fill:#ff6b06;fill-opacity:1;fill-rule:nonzero;stroke:none"
                   d="M 0,0 3.805,9.475 5.953,1.037 0,0 Z m 13.539,18.826 -13.916,0.889 -16.482,-34.135 12.503,-6.174 3.731,12.178 9.243,0.605 1.833,-10.075 14.175,0.45 -11.087,36.262 z" />
              </g>
              <g
                 id="g3480"
                 transform="translate(769.2158,180.6953)">
                <path
                   inkscape:connector-curvature="0"
                   id="path3482"
                   style="fill:#ff6b06;fill-opacity:1;fill-rule:nonzero;stroke:none"
                   d="M 0,0 1.935,11.102 6.188,2.488 0,0 Z m 10.294,23.432 -15.225,-2.237 -9.955,-40.629 14.91,-3.791 1.233,14.004 9.839,2.772 4.289,-10.451 15.196,3.738 -20.287,36.594 z" />
              </g>
              <g
                 id="g3484"
                 transform="translate(675.5,175.6973)">
                <path
                   inkscape:connector-curvature="0"
                   id="path3486"
                   style="fill:#ff6b06;fill-opacity:1;fill-rule:nonzero;stroke:none"
                   d="m 0,0 0,0.004 c -1,-1.86 -3.586,-3.044 -6.249,-3.044 -4.728,0 -8.376,3.729 -8.376,8.329 0,4.604 3.92,8.336 8.648,8.336 4.015,0 7.422,-2.701 8.344,-6.336 l -2.388,16.918 c -2.581,0.998 -5.38,1.557 -8.326,1.557 -12.473,0 -22.579,-9.85 -22.579,-21.996 0,-12.149 10.115,-21.995 22.588,-21.995 1.811,0 3.205,0.213 4.892,0.604 L 0,0 Z" />
              </g>
              <g
                 id="g3488"
                 transform="translate(667.1641,156.9941)">
                <path
                   inkscape:connector-curvature="0"
                   id="path3490"
                   style="fill:#ff6b06;fill-opacity:1;fill-rule:nonzero;stroke:none"
                   d="m 0,0 c -12.714,0 -23.061,10.081 -23.061,22.471 0,12.388 10.347,22.467 23.061,22.467 2.929,0 5.789,-0.531 8.511,-1.584 l 0.259,-0.1 2.449,-17.193 -0.932,-0.184 C 9.396,29.395 6.172,31.85 2.45,31.85 c -4.456,0 -8.082,-3.525 -8.082,-7.858 0,-4.332 3.626,-7.853 8.082,-7.853 2.427,0 4.705,1.047 6.247,2.871 L 9.93,20.468 5.654,0.684 5.359,0.617 C 3.598,0.207 1.795,0 0,0" />
              </g>
              <g
                 id="g3492"
                 transform="translate(677.6738,209.543)">
                <path
                   inkscape:connector-curvature="0"
                   id="path3494"
                   style="fill:#ff6b06;fill-opacity:1;fill-rule:nonzero;stroke:none"
                   d="m 0,0 0.1,-0.94 3.954,-41.859 34.772,4.041 0,17.358 -15.392,-9.748 -2.588,7.61 6.314,0.95 -0.643,11.174 -8.287,-2.615 -2.6,8.799 L 28.717,-8.082 31.336,7.854 0,0 Z" />
              </g>
              <g
                 id="g3496"
                 transform="translate(714.5,210)">
                <path
                   inkscape:connector-curvature="0"
                   id="path3498"
                   style="fill:#ff6b06;fill-opacity:1;fill-rule:nonzero;stroke:none"
                   d="M 0,0 0,-19.005 14.85,-12.888 4.025,-46 l 27.58,0 -2.378,28.479 12.84,-5.385 L 46.582,0 0,0 Z" />
              </g>
              <g
                 id="g3500"
                 transform="translate(746.6211,164)">
                <path
                   inkscape:connector-curvature="0"
                   id="path3502"
                   style="fill:#ff6b06;fill-opacity:1;fill-rule:nonzero;stroke:none"
                   d="m 0,0 -28.76,0 10.944,32.508 -14.305,-6.225 0,19.717 L 15.04,46 10.303,22.173 -2.355,27.748 0,0 Z" />
              </g>
            </g>
          </g>
        </g>
      </g>
    </g>
    <text
       y="1024.3507"
       x="151.36034"
       id="text3512"
       style="font-variant:normal;font-weight:normal;font-stretch:normal;font-size:17.5px;font-family:Roboto;-inkscape-font-specification:Roboto-Regular;writing-mode:lr-tb;fill:#fefeff;fill-opacity:1;fill-rule:nonzero;stroke:none">
      <tspan
         id="tspan3514"
         sodipodi:role="line"
         y="1024.3507"
         x="151.36034 161.82533 172.78033 178.34534 183.91034 195.09283 202.16284 212.75034 223.72284 229.37534 241.57285 247.21658 254.25159 264.83908 275.42657 286.39908">children &amp; teens</tspan>
    </text>
  </g>
</svg>
